<?xml version="1.0" encoding="UTF-8"?><!DOCTYPE svg PUBLIC "-//W3C//DTD SVG 1.1//EN" "http://www.w3.org/Graphics/SVG/1.1/DTD/svg11.dtd"><svg xmlns="http://www.w3.org/2000/svg" xmlns:xlink="http://www.w3.org/1999/xlink"><symbol id="btn-arrows" viewBox="0 0 8 11">
<path fill-rule="evenodd" clip-rule="evenodd" d="M1.49992 10.4999L3.99992 7.99992L6.49992 10.4999C6.77607 10.7761 7.22378 10.7761 7.49992 10.4999C7.77607 10.2238 7.77607 9.77607 7.49992 9.49992L4.70703 6.70703C4.31651 6.31651 3.68334 6.31651 3.29282 6.70703L0.499924 9.49993C0.223781 9.77607 0.223781 10.2238 0.499924 10.4999C0.776066 10.7761 1.22378 10.7761 1.49992 10.4999ZM1.49992 4.49992L3.99992 1.99992L6.49992 4.49992C6.77607 4.77607 7.22378 4.77607 7.49992 4.49992C7.77607 4.22378 7.77607 3.77607 7.49992 3.49992L4.70703 0.707032C4.31651 0.316508 3.68334 0.316507 3.29282 0.707031L0.499924 3.49993C0.223781 3.77607 0.223781 4.22378 0.499924 4.49993C0.776066 4.77607 1.22378 4.77607 1.49992 4.49992Z" fill="#41F6D7"/>
</symbol><symbol id="close" viewBox="0 0 18 18">
<path fill-rule="evenodd" clip-rule="evenodd" d="M2.79348 1.25712C2.40295 0.866593 1.76979 0.866592 1.37927 1.25712L1.25712 1.37927C0.866592 1.76979 0.866593 2.40296 1.25712 2.79348L7.46364 9L1.25712 15.2065C0.866593 15.597 0.866592 16.2302 1.25712 16.6207L1.37927 16.7429C1.76979 17.1334 2.40295 17.1334 2.79348 16.7429L9 10.5364L15.2065 16.7429C15.597 17.1334 16.2302 17.1334 16.6207 16.7429L16.7429 16.6207C17.1334 16.2302 17.1334 15.597 16.7429 15.2065L10.5364 9L16.7429 2.79348C17.1334 2.40296 17.1334 1.76979 16.7429 1.37927L16.6207 1.25712C16.2302 0.866592 15.597 0.866593 15.2065 1.25712L9 7.46364L2.79348 1.25712Z" fill="white"/>
</symbol><symbol id="go" viewBox="0 0 40 40">
<rect x="1" y="1.07031" width="38" height="37.0141" rx="18.507" stroke="#FF3E79" stroke-width="2"/>
<path fill-rule="evenodd" clip-rule="evenodd" d="M21.5 19.5775L17.734 15.9042C17.3316 15.5118 17.3316 14.8649 17.734 14.4725L17.8018 14.4064C18.1902 14.0275 18.8098 14.0275 19.1982 14.4064L23.766 18.8616C24.1684 19.254 24.1684 19.9009 23.766 20.2933L19.1982 24.7485C18.8098 25.1274 18.1902 25.1274 17.8018 24.7485L17.734 24.6824C17.3316 24.29 17.3316 23.6431 17.734 23.2507L21.5 19.5775Z" fill="#FF3E79"/>
</symbol><symbol id="logo" viewBox="0 0 105 56">
<path fill-rule="evenodd" clip-rule="evenodd" d="M39.1113 0.777832C38.559 0.777832 38.1113 1.22555 38.1113 1.77783V6.501C38.1113 7.05328 38.559 7.501 39.1113 7.501H78.1045C88.9548 7.501 97.4764 15.8545 97.4764 26.6683C97.4764 26.9742 97.7244 27.2223 98.0304 27.2223H103.668C103.974 27.2223 104.222 26.9742 104.222 26.6683C104.222 12.2155 92.606 0.777832 78.1045 0.777832H39.1113Z"/>
<path fill-rule="evenodd" clip-rule="evenodd" d="M7.61435 27.6918C7.61435 27.4324 7.4041 27.2222 7.14475 27.2222H1.24743C0.988078 27.2222 0.777832 27.4324 0.777832 27.6918C0.777832 42.3161 11.7313 54.3905 25.895 55.1807L71.3325 55.2213C71.8851 55.2218 72.3334 54.7739 72.3334 54.2213V49.1716C72.3334 48.6193 71.8857 48.1716 71.3334 48.1716H27.4569C16.4895 48.1413 7.61435 39.0176 7.61435 27.6918Z"/>
<path fill-rule="evenodd" clip-rule="evenodd" d="M30.1515 42.7776C33.0859 42.7776 35.5302 42.2075 37.9444 41.0345L38.1111 40.8785V32.4845L37.2077 33.641C35.4693 35.5405 33.1348 36.5861 30.4936 36.5861C25.574 36.5861 20.6329 33.4063 20.6329 27.3291C20.6329 22.7366 24.0407 17.8557 30.3206 17.8557C31.5736 17.8557 34.621 18.152 37.2033 20.8943L38.1111 22.0126V13.6566L37.9517 13.4986C35.4918 12.2658 32.983 11.6665 30.1217 11.6665C25.2285 11.6665 21.4092 12.9547 18.3683 15.6025C16.4393 17.2619 13.2222 20.9806 13.2222 27.2417C13.2222 31.8712 14.8706 35.4867 18.3929 38.6226C21.6697 41.496 25.303 42.7776 30.1515 42.7776Z"/>
<path d="M30.1515 42.7776C33.0859 42.7776 35.5302 42.2075 37.9444 41.0345L38.1111 40.8785V32.4845L37.2077 33.641C35.4693 35.5405 33.1348 36.5861 30.4936 36.5861C25.574 36.5861 20.6329 33.4063 20.6329 27.3291C20.6329 22.7366 24.0407 17.8557 30.3206 17.8557C31.5736 17.8557 34.621 18.152 37.2033 20.8943L38.1111 22.0126V13.6566L37.9517 13.4986C35.4918 12.2658 32.983 11.6665 30.1217 11.6665C25.2285 11.6665 21.4092 12.9547 18.3683 15.6025C16.4393 17.2619 13.2222 20.9806 13.2222 27.2417C13.2222 31.8712 14.8706 35.4867 18.3929 38.6226C21.6697 41.496 25.303 42.7776 30.1515 42.7776"/>
<path fill-rule="evenodd" clip-rule="evenodd" d="M51.3335 18.6665H52.7953C54.1361 18.6665 55.6644 18.7397 56.821 19.5281C57.3858 19.9315 58.3335 20.8655 58.3335 22.5619C58.3335 23.8155 57.7795 24.9396 56.8644 25.641C55.6912 26.4926 54.2967 26.4438 53.1761 26.4438H51.3335V18.6665ZM54.6182 32.0906C58.0804 32.0906 60.7904 31.0919 62.6724 29.2106C64.9875 26.9003 65.3335 23.7222 65.3335 22.0467C65.3335 20.2539 64.9085 16.7571 62.0584 14.2252C59.7222 12.1781 57.2295 11.6665 53.7133 11.6665H44.3335V42.7776H51.4677V32.0906H54.6182Z"/>
<path d="M51.3335 18.6665V18.4165H51.0835V18.6665H51.3335ZM56.821 19.5281L56.9664 19.3246L56.9618 19.3215L56.821 19.5281ZM56.8644 25.641L57.0114 25.8434L57.0165 25.8394L56.8644 25.641ZM51.3335 26.4438H51.0835V26.6938H51.3335V26.4438ZM62.6724 29.2106L62.4958 29.0336L62.4957 29.0338L62.6724 29.2106ZM62.0584 14.2252L62.2245 14.0383L62.2232 14.0372L62.0584 14.2252ZM44.3335 11.6665V11.4165H44.0835V11.6665H44.3335ZM44.3335 42.7776H44.0835V43.0276H44.3335V42.7776ZM51.4677 42.7776V43.0276H51.7177V42.7776H51.4677ZM51.4677 32.0906V31.8406H51.2177V32.0906H51.4677ZM51.3335 18.9165H52.7953V18.4165H51.3335V18.9165ZM52.7953 18.9165C54.1418 18.9165 55.5949 18.9949 56.6802 19.7347L56.9618 19.3215C55.7338 18.4844 54.1304 18.4165 52.7953 18.4165V18.9165ZM56.6757 19.7315C57.201 20.1067 58.0835 20.9738 58.0835 22.5619H58.5835C58.5835 20.7572 57.5707 19.7563 56.9664 19.3246L56.6757 19.7315ZM58.0835 22.5619C58.0835 23.7415 57.5628 24.7907 56.7124 25.4426L57.0165 25.8394C57.9962 25.0885 58.5835 23.8896 58.5835 22.5619H58.0835ZM56.7176 25.4387C55.622 26.2339 54.317 26.1938 53.1761 26.1938V26.6938C54.2763 26.6938 55.7604 26.7513 57.0113 25.8433L56.7176 25.4387ZM53.1761 26.1938H51.3335V26.6938H53.1761V26.1938ZM51.5835 26.4438V18.6665H51.0835V26.4438H51.5835ZM54.6182 32.3406C58.1289 32.3406 60.909 31.3269 62.8492 29.3874L62.4957 29.0338C60.6718 30.857 58.0319 31.8406 54.6182 31.8406V32.3406ZM62.849 29.3875C65.2354 27.006 65.5835 23.7436 65.5835 22.0467H65.0835C65.0835 23.7008 64.7395 26.7945 62.4958 29.0336L62.849 29.3875ZM65.5835 22.0467C65.5835 20.2258 65.1535 16.6403 62.2245 14.0383L61.8924 14.4121C64.6635 16.8739 65.0835 20.282 65.0835 22.0467H65.5835ZM62.2232 14.0372C59.8215 11.9326 57.257 11.4165 53.7133 11.4165V11.9165C57.202 11.9165 59.6229 12.4235 61.8937 14.4132L62.2232 14.0372ZM53.7133 11.4165H44.3335V11.9165H53.7133V11.4165ZM44.0835 11.6665V42.7776H44.5835V11.6665H44.0835ZM44.3335 43.0276H51.4677V42.5276H44.3335V43.0276ZM51.7177 42.7776V32.0906H51.2177V42.7776H51.7177ZM51.4677 32.3406H54.6182V31.8406H51.4677V32.3406Z" fill="#80949F"/>
<path fill-rule="evenodd" clip-rule="evenodd" d="M86.735 26.3593C85.1839 24.9851 83.0188 24.1884 80.5615 23.3621C78.8106 22.7529 77.8459 22.4172 77.2027 21.8308C76.6951 21.3999 76.4688 20.9321 76.4688 20.3138C76.4688 18.9595 77.389 17.5122 79.9726 17.5122C81.7283 17.5122 83.1983 18.2629 84.3421 19.7426L84.7962 20.3301L88.5636 15.5346L88.2201 15.1906C85.916 12.8848 82.8798 11.6665 79.4396 11.6665C72.4985 11.6665 69.3915 16.1821 69.3915 20.6574C69.3915 23.0589 70.248 24.9957 71.9318 26.4116C73.4393 27.7037 75.2777 28.4277 77.0411 29.0186L77.2404 29.0847C78.8064 29.6023 80.4259 30.138 81.3932 31.0037C82.0662 31.622 82.3661 32.2939 82.3661 33.1822C82.3661 35.218 80.7629 36.5861 78.3768 36.5861C76.4906 36.5861 74.007 35.6616 72.693 33.0675L72.3493 32.3879L67.6665 36.7226L67.9427 37.1132C69.4367 39.2287 72.808 42.7776 78.5989 42.7776C84.9844 42.7776 89.4443 38.6724 89.4443 32.7948C89.4443 29.433 87.9694 27.4377 86.735 26.3593Z"/>
<path d="M86.735 26.3593C85.1839 24.9851 83.0188 24.1884 80.5615 23.3621C78.8106 22.7529 77.8459 22.4172 77.2027 21.8308C76.6951 21.3999 76.4688 20.9321 76.4688 20.3138C76.4688 18.9595 77.389 17.5122 79.9726 17.5122C81.7283 17.5122 83.1983 18.2629 84.3421 19.7426L84.7962 20.3301L88.5636 15.5346L88.2201 15.1906C85.916 12.8848 82.8798 11.6665 79.4396 11.6665C72.4985 11.6665 69.3915 16.1821 69.3915 20.6574C69.3915 23.0589 70.248 24.9957 71.9318 26.4116C73.4393 27.7037 75.2777 28.4277 77.0411 29.0186L77.2404 29.0847C78.8064 29.6023 80.4259 30.138 81.3932 31.0037C82.0662 31.622 82.3661 32.2939 82.3661 33.1822C82.3661 35.218 80.7629 36.5861 78.3768 36.5861C76.4906 36.5861 74.007 35.6616 72.693 33.0675L72.3493 32.3879L67.6665 36.7226L67.9427 37.1132C69.4367 39.2287 72.808 42.7776 78.5989 42.7776C84.9844 42.7776 89.4443 38.6724 89.4443 32.7948C89.4443 29.433 87.9694 27.4377 86.735 26.3593"/>
</symbol><symbol id="mail" viewBox="0 0 20 18">
<path d="M10.5 9C12.9853 9 15 6.98528 15 4.5C15 2.01472 12.9853 0 10.5 0C8.01472 0 6 2.01472 6 4.5C6 6.98528 8.01472 9 10.5 9Z" fill="white"/>
<path d="M0.0165859 16.6118C-0.113065 17.3412 0.535191 18 1.33903 18H18.6604C19.4902 18 20.1125 17.3412 19.9829 16.6118C19.2309 12.4 15.0561 10 9.99973 10C4.94333 10 0.768563 12.4 0.0165859 16.6118Z" fill="white"/>
</symbol><symbol id="message" viewBox="0 0 20 20">
<path fill-rule="evenodd" clip-rule="evenodd" d="M18 0H2C0.9 0 0.01 0.9 0.01 2L0 20L4 15H18C19.1 15 20 14.1 20 13V2C20 0.9 19.1 0 18 0ZM11 11H5C4.45 11 4 10.55 4 10C4 9.45 4.45 9 5 9H11C11.55 9 12 9.45 12 10C12 10.55 11.55 11 11 11ZM15 6H5C4.45 6 4 5.55 4 5C4 4.45 4.45 4 5 4H15C15.55 4 16 4.45 16 5C16 5.55 15.55 6 15 6Z" fill="white"/>
</symbol><symbol id="phone" viewBox="0 0 18 18">
<path fill-rule="evenodd" clip-rule="evenodd" d="M1.76019 12.25L4.30019 11.96C4.91019 11.89 5.51019 12.1 5.94019 12.53L7.78019 14.37C10.6102 12.93 12.9302 10.62 14.3702 7.78L12.5202 5.93C12.0902 5.5 11.8802 4.9 11.9502 4.29L12.2402 1.77C12.3602 0.76 13.2102 0 14.2302 0H15.9602C17.0902 0 18.0302 0.94 17.9602 2.07C17.4302 10.61 10.6002 17.43 2.07019 17.96C0.940193 18.03 0.00019455 17.09 0.00019455 15.96V14.23C-0.00980568 13.22 0.750193 12.37 1.76019 12.25Z" fill="white"/>
</symbol><symbol id="search" viewBox="0 0 18 18">
<path fill-rule="evenodd" clip-rule="evenodd" d="M12.5006 11.0006H11.7106L11.4306 10.7306C12.6306 9.33063 13.2506 7.42063 12.9106 5.39063C12.4406 2.61063 10.1206 0.390626 7.32063 0.0506256C3.09063 -0.469374 -0.469374 3.09063 0.0506256 7.32063C0.390626 10.1206 2.61063 12.4406 5.39063 12.9106C7.42063 13.2506 9.33063 12.6306 10.7306 11.4306L11.0006 11.7106V12.5006L15.2606 16.7506C15.6706 17.1606 16.3306 17.1606 16.7406 16.7506L16.7506 16.7406C17.1606 16.3306 17.1606 15.6706 16.7506 15.2606L12.5006 11.0006ZM6.50063 11.0006C4.01063 11.0006 2.00063 8.99063 2.00063 6.50063C2.00063 4.01063 4.01063 2.00063 6.50063 2.00063C8.99063 2.00063 11.0006 4.01063 11.0006 6.50063C11.0006 8.99063 8.99063 11.0006 6.50063 11.0006Z" fill="white"/>
</symbol><symbol id="settings" viewBox="0 0 20 20">
<path d="M8.25807 13.4583L8.66685 13.0494L6.94998 11.3322L6.54121 11.7411L6.33682 11.5367C6.0098 11.1687 5.68278 10.9643 5.35575 11.0052C5.11049 11.0052 4.9061 11.1687 4.74259 11.414C4.49732 11.8229 4.61996 12.2726 4.66083 12.5588C4.66083 12.6406 4.70171 12.6815 4.70171 12.7632C4.70171 12.8859 4.70171 13.0494 4.41557 13.0903C4.00679 13.213 3.47538 13.3356 2.94397 13.6218C2.20817 14.0307 1.71764 14.3987 1.4315 14.7666C-0.0809772 16.7291 0.000778159 18.4055 0.000778159 18.4872C0.000778159 18.6099 0.0416558 18.6917 0.123411 18.7325L1.22711 19.8773C1.30886 19.9591 1.39062 20 1.47237 20C1.47237 20 1.51325 20 1.59501 20C2.00378 20 3.47538 19.9182 5.19224 18.569C5.56014 18.2828 5.92804 17.7922 6.33682 17.0562C6.62296 16.5656 6.78647 16.0341 6.86823 15.5844C6.94998 15.2982 7.07262 15.2982 7.19525 15.2982C7.23613 15.2982 7.31788 15.339 7.39964 15.339C7.56315 15.3799 7.72666 15.4208 7.93105 15.4208C8.13544 15.4208 8.33983 15.3799 8.54421 15.2573C8.78948 15.0937 8.95299 14.8893 8.99387 14.644C9.03475 14.3169 8.87123 13.9898 8.50334 13.7036L8.25807 13.4583Z" fill="white"/>
<path d="M16.884 4.87841L18.0188 4.32603C18.0609 4.28354 18.1449 4.24105 18.1869 4.19856L19.9101 1.86157C20.0362 1.69161 20.0362 1.43667 19.8681 1.3092L18.6913 0.119458C18.5652 -0.00801422 18.313 -0.0505049 18.1449 0.076967L15.8333 1.81908C15.7913 1.86157 15.7493 1.90406 15.7072 1.98905L15.1609 3.13629L11 7.21539L12.7652 9L16.884 4.87841Z" fill="white"/>
<path d="M17.8527 13.0448C16.8636 12.0036 15.4393 11.6288 14.0941 12.0036L7.64527 5.17331C7.72439 4.79848 7.76396 4.46529 7.76396 4.09046C7.76396 3.04926 7.36832 2.00806 6.61661 1.21675C5.58796 0.0922529 4.04498 -0.282579 2.6207 0.217197C2.54157 0.258845 2.42288 0.383789 2.38331 0.550381C2.38331 0.675325 2.42288 0.800269 2.50201 0.925213L4.44062 2.96597C4.87582 3.42409 4.87582 4.21541 4.44062 4.67353C4.00542 5.13166 3.25371 5.13166 2.81851 4.67353L0.8799 2.63278C0.76121 2.54949 0.642519 2.50784 0.484265 2.54949C0.365574 2.54949 0.246884 2.67443 0.20732 2.79937C-0.267442 4.25705 0.0886295 5.88133 1.11728 6.96417C1.82943 7.75549 2.85808 8.17197 3.88673 8.17197C4.20324 8.17197 4.55931 8.13032 4.87582 8.04702L11.3642 14.8773C11.0082 16.2933 11.4038 17.7927 12.3533 18.8339C13.105 19.6252 14.0546 20 15.0832 20C15.5184 20 15.914 19.9167 16.3492 19.7918C16.4679 19.7501 16.5866 19.6252 16.6262 19.5002C16.6658 19.3753 16.6262 19.2087 16.5075 19.1254L14.5689 17.0846C14.3711 16.8764 14.2128 16.5432 14.2128 16.21C14.2128 15.8768 14.3315 15.5853 14.5689 15.3354C14.8063 15.0855 15.0832 14.9606 15.3997 14.9606C15.7162 14.9606 15.9932 15.0855 16.2306 15.3354L18.1692 17.3762C18.2879 17.4595 18.4065 17.5011 18.5252 17.5011C18.6439 17.4595 18.7626 17.3762 18.8022 17.2512C18.9209 16.8348 19 16.3766 19 15.9185C19 14.8356 18.6044 13.7944 17.8527 13.0448Z" fill="white"/>
</symbol>
<symbol id="status" viewBox="0 0 16 20">
<path fill-rule="evenodd" clip-rule="evenodd" d="M0 1C0 0.447715 0.447715 0 1 0H15C15.5523 0 16 0.447716 16 1V18.5C15.1716 18.5 14.5001 19.1715 14.5 19.9999H13.5C13.4999 19.1715 12.8284 18.5 12 18.5C11.1716 18.5 10.5001 19.1715 10.5 19.9999H9.5C9.49994 19.1715 8.82839 18.5 8 18.5C7.17161 18.5 6.50006 19.1715 6.5 19.9999H5.5C5.49994 19.1715 4.82839 18.5 4 18.5C3.17161 18.5 2.50006 19.1715 2.5 19.9999H1.5C1.49994 19.1715 0.828392 18.5 0 18.5V1ZM9.41635 11.7884C8.55361 12.3444 7.47039 12.5936 6.32965 12.3827C4.52748 12.0472 3.08957 10.5327 2.85951 8.71142C2.49524 5.82612 4.94926 3.42012 7.85383 3.88023C9.656 4.1678 11.1035 5.644 11.4007 7.43652C11.5828 8.54846 11.324 9.57413 10.7872 10.4273L12.8961 12.5265C13.2699 12.9004 13.2699 13.5138 12.8961 13.8877C12.5126 14.2711 11.8991 14.2711 11.5253 13.8973L9.41635 11.7884ZM4.70588 8.05882C4.70588 6.76 5.76 5.70588 7.05882 5.70588C8.35765 5.70588 9.41177 6.76 9.41177 8.05882C9.41177 9.35765 8.35765 10.4118 7.05882 10.4118C5.76 10.4118 4.70588 9.35765 4.70588 8.05882Z" fill="white"/>
</symbol>
<symbol id="burger" width="18" height="16" viewBox="0 0 18 16" fill="none" xmlns="http://www.w3.org/2000/svg">
<path fill-rule="evenodd" clip-rule="evenodd" d="M0 1C0 0.447715 0.447715 0 1 0H17C17.5523 0 18 0.447715 18 1C18 1.55228 17.5523 2 17 2H1C0.447716 2 0 1.55228 0 1ZM0 8C0 7.44772 0.447715 7 1 7H9C9.55228 7 10 7.44772 10 8C10 8.55229 9.55229 9 9 9H1C0.447715 9 0 8.55229 0 8ZM1 14C0.447715 14 0 14.4477 0 15C0 15.5523 0.447716 16 1 16H13C13.5523 16 14 15.5523 14 15C14 14.4477 13.5523 14 13 14H1Z" fill="white"/>
</symbol>
<symbol id="cross" width="18" height="18" viewBox="0 0 18 18" fill="none" xmlns="http://www.w3.org/2000/svg">
<path fill-rule="evenodd" clip-rule="evenodd" d="M2.79348 1.25712C2.40295 0.866593 1.76979 0.866592 1.37927 1.25712L1.25712 1.37927C0.866592 1.76979 0.866593 2.40296 1.25712 2.79348L7.46364 9L1.25712 15.2065C0.866593 15.597 0.866592 16.2302 1.25712 16.6207L1.37927 16.7429C1.76979 17.1334 2.40295 17.1334 2.79348 16.7429L9 10.5364L15.2065 16.7429C15.597 17.1334 16.2302 17.1334 16.6207 16.7429L16.7429 16.6207C17.1334 16.2302 17.1334 15.597 16.7429 15.2065L10.5364 9L16.7429 2.79348C17.1334 2.40296 17.1334 1.76979 16.7429 1.37927L16.6207 1.25712C16.2302 0.866592 15.597 0.866593 15.2065 1.25712L9 7.46364L2.79348 1.25712Z" fill="white"/>
</symbol>
</svg>